<?xml version="1.0" encoding="utf-8"?>
<!-- Generator: Adobe Illustrator 26.0.1, SVG Export Plug-In . SVG Version: 6.00 Build 0)  -->
<svg version="1.1" id="_x3C_Layer_x3E_" xmlns="http://www.w3.org/2000/svg" xmlns:xlink="http://www.w3.org/1999/xlink" x="0px"
	 y="0px" viewBox="0 0 2975 1700" style="enable-background:new 0 0 2975 1700;" xml:space="preserve">
<style type="text/css">
	.st0{fill:#478FFC;}
	.st1{fill:#A8D29F;}
	.st2{fill:#4A75CB;}
	.st3{fill:#699DEE;}
	.st4{fill:#D86713;}
	.st5{fill:#F1A34F;}
	.st6{fill:#C95C12;}
	.st7{fill:#82B378;}
	.st8{fill:#FFB973;}
	.st9{fill:#ED975D;}
	.st10{fill:#2B478B;}
	.st11{fill:#233862;}
	.st12{fill:#1E3D70;}
	.st13{fill:#FFB27D;}
	.st14{fill:#2C3A64;}
	.st15{fill:#80EBFF;}
	.st16{fill:#4A82D3;}
	.st17{fill:#A9453D;}
	.st18{fill:#EE9849;}
	.st19{fill:#E58638;}
	.st20{fill:#2A4E96;}
	.st21{fill:#35488B;}
	.st22{fill:#455FAC;}
	.st23{fill:#4271BC;}
	.st24{opacity:0.7;}
	.st25{opacity:0.67;}
	.st26{opacity:0.47;}
	.st27{font-family:'Arial';}
	.st28{font-size:146.3249px;}
	.st29{letter-spacing:5.19;}
</style>
<path class="st0" d="M-4.47,776.1l99.68,15.43c99.68,16.6,299.03,45.72,498.38,62.31c199.35,15.43,398.7,15.43,598.06,124.04
	c199.35,109.78,398.7,325.25,598.06,372.72c199.35,45.72,398.7-76.58,598.06-108.61c199.35-32.03,398.7,32.03,498.38,62.02
	l99.68,31.16v372.72h-99.68c-99.68,0-299.03,0-498.38,0c-199.35,0-398.7,0-598.06,0s-398.7,0-598.06,0s-398.7,0-598.06,0
	s-398.7,0-498.38,0H-4.47V776.1z"/>
<path class="st0" d="M1619.53,1455.2l17.78-2.13c17.78-2.29,53.34-6.31,88.9-8.6c35.56-2.13,71.12-2.13,106.67-17.12
	c35.56-15.15,71.12-44.88,106.67-51.43c35.56-6.31,71.12,10.57,106.67,14.99c35.56,4.42,71.12-4.42,88.9-8.56l17.78-4.3v-51.43
	h-17.78c-17.78,0-53.34,0-88.9,0s-71.12,0-106.67,0c-35.56,0-71.12,0-106.67,0c-35.56,0-71.12,0-106.67,0s-71.12,0-88.9,0h-17.78
	V1455.2z"/>
<rect x="4900.27" y="-1837.19" style="fill:none;" width="6.53" height="0"/>
<g>
	<g>
		<path class="st0" d="M1747.73,1335.81c0,0-142.79-291.69,138.63-291.69c148.7,0,87.44-80.03,188.53-172.65
			c101.09-92.61,454.63-166.61,529.88,12.24s-110.72,314.64,68.98,291.35c215.94-27.99,301.25,160.76,301.25,160.76H1747.73z"/>
		<path class="st1" d="M2904.19,1298.8c-13.32-9.34-40.55-3.03-60.65,3.71c-3-4.05-6.64-8.22-11.05-12.29
			c43.29-26.75,103.08-83.8,71.39-88.63c-27.55-4.2-64.73,47.16-84.6,78.41c-20.63-13.32-52.25-23.1-100.52-19.71
			c-125.27,8.81-223.14-68.7-295.28-42.85c-57.36,20.55-109.92,32.07-160.62,28.14c2.18-35.53,2.66-105.28-26.43-112.51
			c-29.52-7.35-0.57,71.87,15.53,111.42c-3.78-0.47-7.55-1.02-11.3-1.66c-10.42-19.71-27.59-45.51-46.46-46.39
			c-17.76-0.83,4.16,22.36,25.73,42.01c-61.99-12.49-135.53,35.86-136.75,93.01h773.97c0,0-1.37-8.34-7.45-19.34
			C2879.64,1311.55,2918.66,1308.95,2904.19,1298.8z"/>
		<g>
			<g>
				<rect x="2048.04" y="1287.28" class="st2" width="203.99" height="44.18"/>
				<rect x="1985.14" y="1287.28" class="st3" width="203.99" height="44.19"/>
			</g>
		</g>
		<g>
			<g>
				<g>
					<rect x="2332.28" y="1127.8" class="st4" width="151.89" height="203.66"/>
					<rect x="2285.44" y="1127.8" class="st5" width="151.89" height="203.66"/>
				</g>
			</g>
			<polygon class="st6" points="2437.33,1127.8 2484.17,1158.38 2484.17,1127.8 			"/>
		</g>
		<g>
			<path class="st7" d="M1968.46,1172.91c0,0-28.41,20.26-33.94,19.03c-5.54-1.23,20.76-21.87,20.76-21.87
				c-9.9-4.56-40.66-1.7-40.66-1.7s-10.25,31.7-15.3,29.2c-5.05-2.5,10.57-27.62,10.57-27.62c-11.02-0.64-24.54,7.21-24.54,7.21
				c-18.51,14.02,1.22,36.09,1.22,36.09s-3.8,10.91-15.49,20.85c0,0-16.69,11.84-17.85,33l3.03,0.26c0,0,4.8-19.71,13.53-29.02
				c0.34-0.34,0.83-0.82,1.44-1.41c1.42-1.26,2.42-2.21,3.09-2.92c4.34-4,10.34-9.1,13.24-9.6c0,0-0.15-0.51-0.12-1.4
				c0.04,0.45,0.08,0.91,0.12,1.4c0.99,11.15,23.55,20.9,37.43,22.9c13.88,2,9.59-3.47,4.81-11.59
				c-4.78-8.12-19.92-11.75-23.37-15.49c-3.46-3.74,3.69-3.75,12.05-0.08c8.36,3.66,9.51,13.43,22.92,19.59s33.6-15.19,33.6-15.19
				c-10.69-0.52-25.96-11.66-25.41-15.06c0.55-3.41,25.92,5.88,30.25,6.32c4.33,0.45,14.2-4.73,15.73-21.48
				C1997.09,1177.59,1968.46,1172.91,1968.46,1172.91z"/>
			<g>
				<path class="st1" d="M1817.6,1185.5c0,0,31.37-16.85,16.73-39.73c0,0-11.71-14.05-24.26-17.66c0,0,6.69,34.11,0,34.91
					c-6.69,0.8-4.6-38.52-4.6-38.52s-33.05-15.25-46.02-14.05c0,0,20.5,33.31,13.8,32.5c-6.69-0.8-29.7-34.51-29.7-34.51
					s-33.88-6.02-39.32,13.24c-5.44,19.26,3.34,28.89,8.36,30.09s37.23,0.8,36.39,4.82c-0.84,4.01-22.59,10.43-34.72,6.82
					c0,0,13.39,31.7,30.96,30.09c17.57-1.6,23.01-12.04,33.88-12.84c10.88-0.8,18.83,2.01,13.39,4.82
					c-5.44,2.81-23.85,0.92-32.63,8.08c-8.78,7.17-15.9,11.58,0.42,14.79c16.32,3.21,45.6,1.2,51.45-10.83
					C1817.6,1185.5,1817.6,1185.5,1817.6,1185.5z"/>
				<path class="st7" d="M1825.96,1214.79c-8.78-15.65-8.36-29.3-8.36-29.3c-10.04-30.5-97.89-57.79-97.89-57.79
					c111.69,43.34,92.03,69.82,92.03,69.82c3.01,1.69,7.52,9.71,10.66,15.88c0.44,1.05,1.15,2.5,2.2,4.47l0,0
					c0.42,0.89,0.77,1.62,1,2.13c5.75,13.8,2.7,37.64,2.7,37.64l3.49,0.9C1839.51,1234.52,1825.96,1214.79,1825.96,1214.79z"/>
			</g>
			<g>
				<path class="st1" d="M1867.51,1162.25c0,0-41.36-22.22-22.06-52.37c0,0,15.44-18.51,31.98-23.27c0,0-8.82,44.96,0,46.02
					c8.82,1.06,6.07-50.78,6.07-50.78s43.56-20.1,60.66-18.51c0,0-27.02,43.9-18.2,42.85c8.82-1.06,39.15-45.49,39.15-45.49
					s44.67-7.94,51.83,17.46c7.17,25.39-4.41,38.08-11.03,39.67c-6.62,1.59-49.08,1.06-47.98,6.35s29.78,13.75,45.77,8.99
					c0,0-17.64,41.79-40.8,39.67c-23.16-2.12-30.33-15.87-44.67-16.92c-14.34-1.06-24.82,2.65-17.64,6.35
					c7.17,3.7,31.43,1.21,43.01,10.66c11.58,9.44,20.95,15.26-0.55,19.49c-21.5,4.23-60.1,1.59-67.83-14.28
					C1867.51,1162.25,1867.51,1162.25,1867.51,1162.25z"/>
				<path class="st7" d="M1996.55,1086.08c0,0-115.8,35.97-129.03,76.17c0,0,0.55,17.99-11.03,38.61c0,0-17.86,26.01-7.68,57.68
					l4.6-1.18c0,0-4.02-31.42,3.57-49.61c0.31-0.67,0.76-1.63,1.32-2.81l0,0c1.38-2.6,2.31-4.51,2.9-5.89
					c4.13-8.12,10.08-18.71,14.05-20.93C1875.23,1178.12,1849.31,1143.21,1996.55,1086.08z"/>
			</g>
			<path class="st5" d="M1866.12,1327.21c44.74,0,81.01-34.79,81.01-77.71H1785.1C1785.1,1292.42,1821.38,1327.21,1866.12,1327.21z"
				/>
			<path class="st8" d="M1886.05,1326.62c-3.29,0.39-6.65,0.6-10.07,0.6c-44.74,0-81.01-34.79-81.01-77.71h20.12
				C1815.1,1289.15,1846.06,1321.86,1886.05,1326.62z"/>
			<path class="st5" d="M1938.26,1321.87h-144.28c-5.52,0-10,4.29-10,9.59h164.26C1948.25,1326.16,1943.77,1321.87,1938.26,1321.87z
				"/>
			<path class="st4" d="M1947.73,1249.5h-164.05c-0.69,0-1.24,0.53-1.24,1.19c0,0.66,0.56,1.19,1.24,1.19h164.05
				c0.69,0,1.24-0.53,1.24-1.19C1948.97,1250.04,1948.41,1249.5,1947.73,1249.5z"/>
		</g>
		<g>
			<path class="st9" d="M2572.86,840.28c-2.35-0.34-9.43,5.94-9.43,5.94l0,0c-15.11,1.68-37.2,5.52-45.15,6.99
				c-5.64,1.04-20.8-3.92-35.61-9.61c-17.61-6.77-34.73-14.58-34.73-14.58c-9.77-0.48-20.87,16.62-1.05,27.5
				c3.03,1.66,14.4,4.49,27.48,7.08c0,0,0,0,0.01,0c18.06,3.57,39.39,6.67,46.65,5.58c8.44-1.26,32.31-9.64,46.52-16.06l0,0
				c0,0,0.02,0,0.04-0.02c0.06-0.02,0.11-0.05,0.16-0.07c0.85-0.38,4.33-1.87,6.65-1.73c2.66,0.15,8.59-4.52,8.77-5.77
				C2583.34,844.27,2575.21,840.62,2572.86,840.28z"/>
			<path class="st10" d="M2554.42,1055.75l-8.32,1.62c0,0-38.07-41.03-43.94-58.3c-3.14-9.23-23.24-13.21-44.25-18.42
				c-18.28-4.54-37.25-10-46.31-20.66c-19.47-22.9,12.23-51.04,12.23-51.04s33.7,19.22,62.78,39.06
				c20.32,13.87,38.38,28.05,41.11,36.2C2534.32,1004.05,2548.34,1041.72,2554.42,1055.75z"/>
			<path class="st11" d="M2543.28,1069.28h4.68c1.57-0.24,2.72-0.67,4.33-0.87c2.44-0.31,3.57,0.65,3.79,0.87
				c0.03,0.03,0.05,0.04,0.05,0.04H2576c0.5-0.68,0.02-2.27-0.45-3.44c-0.32-0.79-1.01-1.4-1.86-1.63
				c-2.11-0.59-6.26-1.11-10.07-4.41c-2.14-1.86-10.34-6.82-10.34-6.82l-0.05-0.01c-0.18,0-1.04,0.26-4.77,3.28
				c-1.93,1.56-5.21-2.2-5.21-2.2s-0.62,0.49-1.08,1.4c-0.37,0.72-0.64,1.71-0.43,2.93c0.3,1.72-0.66,4.91-1.42,7.07
				c-0.46,1.31-0.85,2.24-0.85,2.24S2539.25,1068.8,2543.28,1069.28z"/>
			<path class="st12" d="M2486.6,948.02l-28.7,32.63c-18.28-4.54-37.25-10-46.31-20.66c-19.47-22.9,12.23-51.04,12.23-51.04
				S2457.53,928.17,2486.6,948.02z"/>
			<path class="st10" d="M2460.52,930.97c0,0-2.31,7-6.08,17.53c-4.76,13.32-11.86,32.27-19.55,49.85
				c-1.69,3.86-3.41,7.66-5.14,11.32c-6.4,13.53-12.95,25.12-18.71,31.02c-10.36,10.6-35.56,78.7-35.56,78.7l-6.28-1.67
				c0,0-8.75-58.16,22.25-91.25c0.33-0.35,0.59-0.76,0.63-1.24c0,0,0-0.01,0-0.01c0.41-4.9,1.89-26.84,5.1-49.06
				c0.79-5.46,1.68-10.92,2.69-16.16c0.06-0.33,0.13-0.67,0.19-1c4.72-24.23,9.23-35,15.06-40.42l42.86,11.71L2460.52,930.97z"/>
			<path class="st11" d="M2368.5,1127.76h4.68c1.57-0.24,2.72-0.67,4.33-0.87c2.44-0.31,3.57,0.65,3.79,0.87
				c0.03,0.03,0.05,0.04,0.05,0.04h19.88c0.5-0.68,0.02-2.27-0.45-3.44c-0.32-0.79-1.01-1.4-1.86-1.63
				c-2.11-0.59-6.26-1.1-10.07-4.41c-2.14-1.86-10.34-6.82-10.34-6.82l-0.05-0.01c-0.18,0-1.04,0.26-4.77,3.28
				c-1.93,1.56-5.21-2.2-5.21-2.2s-0.62,0.49-1.08,1.4c-0.37,0.72-0.64,1.71-0.42,2.93c0.3,1.72-0.66,4.91-1.42,7.07
				c-0.46,1.31-0.85,2.24-0.85,2.24S2364.47,1127.27,2368.5,1127.76z"/>
			<path class="st13" d="M2377.69,851.88c0,0-7.17,16.83-15.44,33.22c-6.96,13.78-14.68,27.23-19.58,30.1
				c-6.91,4.05-25.94,15.47-38.29,23.99c0,0-9.64-0.07-11.13,1.7c-1.5,1.77-4.95,9.72-3.95,10.52c1.01,0.8,8.67,0.43,10.53-1.4
				c1.62-1.59,5.24-2.74,6.14-3.01c0.06-0.01,0.11-0.03,0.17-0.05c0.03,0,0.04-0.01,0.04-0.01l0,0
				c15.01-4.43,38.54-13.65,45.66-18.17c6.13-3.89,19.73-19.95,30.58-34.25c0.01,0,0.01,0,0.01,0c7.86-10.36,14.28-19.8,15.35-22.99
				C2404.79,850.69,2384.58,845.21,2377.69,851.88z"/>
			<path class="st14" d="M2415.2,785.87c-0.85-1.19-1.71-2.24-2.57-3.18c1.06,0.02,2.21-0.08,3.17-0.46c2.52-1,3.67-8.66,3.29-10.94
				c-0.38-2.27-3.87-8.85-8.19-9.51c-4.31-0.65-8.77,3.94-8.77,3.94c0.8-3.31,8.09-5.23,8.09-5.23
				c-15.03,2.66-14.26,12.27-14.16,13.16c-13.76-4.7-21.83,20.15-21.83,20.15l35.64,20.14c0,0,0.09-5.49,3.5-5.14
				C2418.66,809.37,2423.08,796.88,2415.2,785.87z"/>
			<path class="st13" d="M2417.47,838.02c-8.18,3.7-19.03-1.63-18.97-1.69c0.7-0.67,0.45-2.68-0.19-5.32
				c-0.64-2.75-2.16-6.5-4.97-10.98c-0.59-0.95-1.17-1.9-1.87-2.91l0.93-0.33l15.89-6.11c0,0,2.57,4.42,5.26,8.46
				c2.28,3.36,4.67,6.39,5.72,6.27C2419.34,825.36,2429.85,832.31,2417.47,838.02z"/>
			<path class="st9" d="M2408.3,812.19c-0.41,5.43-2.33,15.24-9.99,18.82c-0.64-2.75-2.16-6.5-4.97-10.98L2408.3,812.19z"/>
			<path class="st13" d="M2392.42,826.22c0,0,20.68-7.82,15.41-20.1s-6.16-21.56-19.58-17.08s-13.97,10.17-13.24,14.68
				C2375.72,808.22,2386.9,827.94,2392.42,826.22z"/>
			<path class="st14" d="M2400.13,803.32c9.55-1.29,12.33-5,12.33-5s-8.79-2.42-13.96-10.68c0,0-10.73-3.47-18.69,2.33
				c-0.48,0.61-0.83,1.31-1.01,2.15c-1.82-0.57-4.57-0.43-6.15,4.52c-2.38,7.42,6.08,15.53,6.08,15.53
				c2.05-0.56-0.26-7.17-0.59-10.7c-0.24-2.6,1.22-5.93,2.01-7.51c1.01,1.26,11.09,13.4,23.39,13.89c0,0-6.5-2.16-12.41-6.39
				C2394.09,802.85,2397.22,803.71,2400.13,803.32z"/>
			<path class="st15" d="M2456.85,863.32c-0.18-0.59-0.36-1.21-0.56-1.84c3.07-5.63,4.58-10.71,5.22-15
				c1.4-9.08-0.99-14.68-0.99-14.68s-14.35-7.3-20.68-8.23c-0.03-0.01-0.06-0.02-0.08-0.02c-0.08-0.01-0.16-0.02-0.25-0.02
				c-6.39-0.85-20.23,1.87-20.23,1.87s2.67,6.82-4.86,11.37c-7.53,4.54-15.58-1.16-15.58-1.16c-0.24,0.16-0.5,0.33-0.77,0.51l0,0
				c0,0-19.82,12.54-21.6,15.41c-1.78,2.87-9.41,17.06-9.41,17.06s2.42,11.92,29.2,12.91c2.2,5.12,3.88,10.12,4.43,14.28
				c2.13,16.18-0.34,28.94,2.14,38.38c2.48,9.44,47.16,4.06,55.25,2.24s6.27-10.1,6.89-18.16
				C2465.74,908.13,2459.48,872.24,2456.85,863.32z"/>
			<path class="st16" d="M2461.5,846.48c-0.64,4.31-2.16,9.41-5.26,15.07c-0.7-2.97-3.56-13.84-8.18-18.77
				C2448.07,842.78,2455.84,843.46,2461.5,846.48z"/>
		</g>
		<g>
			<path class="st9" d="M2279.59,952.5c0,0,8.32-9.68,10.12-10.82c1.79-1.14,9.65-3.15,10.1-2.75c0.45,0.4,0.47,0.99-0.51,1.81
				c-0.97,0.82-4.69,2.91-4.16,3.14c0.53,0.23,11.75-5.12,13.37-3.32c1.62,1.8-0.91,9.24-5.24,12.81
				c-4.32,3.57-17.22,5.09-18.04,5.58C2278.35,963.18,2279.59,952.5,2279.59,952.5z"/>
			<path class="st13" d="M2133.04,930.16c0,0,11.96,13.61,27.19,7.92c0,0,3.28-7.6,3.32-13.2c0.01-0.69,0.02-1.36,0.03-1.99
				c0.08-6.31,0.3-9.85,0.3-9.85s-0.01,0-0.02,0c-0.69-0.28-23.28-9.17-23.26-8.44C2140.99,921.66,2133.04,930.16,2133.04,930.16z"
				/>
			<path class="st9" d="M2142.87,908.66c2.18,3.87,9.65,11.45,20.7,14.22c0.08-6.31,0.3-9.85,0.3-9.85s-0.01,0-0.02,0
				C2163.23,912.87,2142.22,907.52,2142.87,908.66z"/>
			<path class="st13" d="M2168.61,912.37c0,0-25.4,5.73-28.88-9.5c-3.48-15.23-9.09-24.75,6.98-29.05
				c16.07-4.3,20.56,0.85,23.01,5.66C2172.16,884.3,2175.12,910.49,2168.61,912.37z"/>
			<path class="st17" d="M2140.6,907.02c-0.35,0.21-5.81,1.82-16.16-17.96c-1.63-3.11-2.73-9.82,1.06-15.76
				c3.79-5.94,17.22-10.6,28.38-12.63s13.84,3.99,16.47,10.04c2.76,6.35,10.72,11.59,10.72,11.59c-9.62,5.16-21.21-2.22-25.23-1.01
				c-4.02,1.21-5.44,7.28-5.73,9.23c-0.3,1.94-0.76,3.56-5.81,1.82c-5.05-1.74-2.28,6.87-1.47,8.51
				C2142.81,900.86,2143.49,905.24,2140.6,907.02z"/>
			<g>
				<path class="st14" d="M2075.17,1287.28h-15.38c-3.22,0-6.81-3.14-7.7-8.88c-0.9-5.75-7.53-8.88-8.96-13.59
					c-1.43-4.7,5.92-11.32,5.92-11.32l1.23-1.54l1.28-1.6l12.18,2.79c0,0,0.3,2.82,0.49,6.41c0.13,2.59,0.2,5.59,0.05,8.22
					c-0.36,6.27,1.81,13.02,7.54,14.25C2077.54,1283.24,2075.17,1287.28,2075.17,1287.28z"/>
				<path class="st14" d="M2182.24,1287.42h-40.77c-0.39-0.08-0.69-0.16-0.86-0.25c-2.72-1.35-1.87-11.64-1.54-14.82
					c0.06-0.59,0.11-0.94,0.11-0.94s14.34-11.32,16.31-2.66c0.06,0.27,0.14,0.54,0.21,0.8v0c2.49,8.12,13.61,11.8,20.04,12.83
					C2180.64,1283.19,2181.91,1286.01,2182.24,1287.42z"/>
				<path class="st18" d="M2174.02,1061.27c0,0-2.18,26.06-4.74,57.38c-3.48,42.55-7.66,94.81-8.08,104.71
					c-0.72,17.19-3.59,44.69-3.59,44.69s-6.8,6.53-20.43,3.78c0,0-12.14-39.26-15.61-80.8c-0.06-0.68-0.11-1.37-0.16-2.05
					c-3.22-42.29-8.24-131.33-8.24-131.33L2174.02,1061.27z"/>
				<path class="st19" d="M2174.02,1061.27c0,0-2.18,26.06-4.74,57.38l-47.69,72.39c-0.06-0.68-0.11-1.37-0.16-2.05
					c-3.22-42.29-8.24-131.33-8.24-131.33L2174.02,1061.27z"/>
				<path class="st18" d="M2164.08,1064.36c0,0-39.24,94.37-65.05,138.72c-25.8,44.35-33.87,56.72-33.87,56.72
					s-14.78-5.67-16.13-9.54c0,0,9.87-85.62,27.15-106.49c9.76-11.79,21.24-47.18,21.77-59.56c0.54-12.38,3.5-36.87,3.5-36.87
					L2164.08,1064.36z"/>
			</g>
			<g>
				<path class="st9" d="M2074.23,1048.64c0,0-1.02,11.78-1.76,13.6c-0.74,1.81-5.71,7.42-6.28,7.34c-0.57-0.08-0.92-0.52-0.63-1.66
					c0.29-1.14,2-4.67,1.46-4.58c-0.54,0.09-6.22,10.03-8.48,9.47c-2.26-0.56-4.48-7.63-3.13-12.62s10.48-12.83,10.83-13.63
					C2069.2,1039.74,2074.23,1048.64,2074.23,1048.64z"/>
				<path class="st12" d="M2070.01,1051.63c4.34,1.34,5.04,1.04,5.04,1.04s21.14-36.92,23.28-40.3c2.14-3.38,44.89-41.4,44.89-41.4
					l-10.99-39.3c0,0-48.62,60.39-53.87,69.06c-8.68,14.32-13.76,47.58-13.76,47.58S2066.6,1050.58,2070.01,1051.63z"/>
			</g>
			<path class="st20" d="M2182.31,986.39c-0.15,8.07-0.64,17.14-1.3,26.35c-0.04,0.55-0.08,1.1-0.12,1.64
				c-0.42,5.71-0.88,11.43-1.4,17.01c-0.21,2.24-0.43,4.45-0.67,6.62l-0.04,0.29c-0.02,0.81-0.12,1.7-0.22,2.5
				c-2.14,20.9-4.39,37.41-4.81,37.66c-0.5,0.32-1.06,0.48-1.67,0.41c-5.71-0.69-22.76,0.56-36.71-2.36
				c-11.77-2.38-21.91-6.9-32.66-12.99c-1.42-0.81-4.68-2.95-4.41-4.55c0.26-1.76,0.74-4.3,1.35-7.5
				c2.12-11.12,5.77-30.24,7.02-52.61c0.24-4.17,0.6-8.29,1.06-12.33c1.2-10.54,3.12-20.56,5.69-29.46
				c4.78-16.53,11.81-29.18,20.63-34.13c1.15-0.62,7.35,3.16,13.05,6.67c5.26,3.24,10.8,4.13,16.18,3.68l4.74,5.03
				c5.74,6.4,11.85,14.92,13.52,27.03c0.13,0.9,0.23,1.85,0.32,2.85C2182.32,973.15,2182.44,979.39,2182.31,986.39z"/>
			<path class="st12" d="M2182.31,986.39c-0.15,8.07-0.64,17.14-1.3,26.35c-0.04,0.55-0.08,1.1-0.12,1.64
				c-32.63-19.59-37.66-55.45-37.66-55.45c16.05,0.67,28.81,4.22,38.64,9.28C2182.32,973.15,2182.44,979.39,2182.31,986.39z"/>
			<g>
				<path class="st20" d="M2284.54,953.47c-1.68-4.37-4.3-4.08-4.3-4.08s-48.52,11.6-52.87,12.09c-4.35,0.5-52.24-17.94-52.24-17.94
					s-18.85-8.12-27.68-0.71c-7.67,6.44-8.02,14.59-6.23,21.45c2.14,8.16,9.34,14.19,18.04,15.26c19.54,2.39,58.52,6.88,66.69,5.79
					c18.18-2.43,59.39-25.24,59.39-25.24S2285.86,956.9,2284.54,953.47z"/>
			</g>
		</g>
		<g id="man_2_">
			<g>
				<path class="st14" d="M2762.95,1038.77c0,0,6.74,5.99,5.42,10.25c-1.31,4.26-7.4,7.1-8.22,12.3c-0.82,5.2-4.11,8.04-7.07,8.04
					s-14.11,0-14.11,0s-2.18-3.66,3.08-4.77c5.26-1.1,7.24-7.22,6.92-12.9c-0.33-5.68,0.49-13.25,0.49-13.25l11.18-2.52
					L2762.95,1038.77z"/>
				<path class="st14" d="M2678.94,1068.66c-0.68,0.33-3.09,0.56-6.38,0.71h-31.9c0.11-0.91,0.85-4.16,6.07-4.96
					c5.89-0.92,16.1-4.21,18.38-11.44c0.08-0.23,0.14-0.47,0.2-0.71c1.81-7.73,14.96,2.36,14.96,2.36s0.04,0.31,0.1,0.84
					C2680.66,1058.3,2681.44,1067.47,2678.94,1068.66z"/>
				<path class="st21" d="M2648.28,861.97c0,0,2,23.91,4.34,52.65c3.19,39.04,7.03,86.99,7.41,96.07
					c0.66,15.77,3.29,41.01,3.29,41.01s6.24,5.99,18.74,3.47c0,0,11.14-36.02,14.32-74.13c0.05-0.63,0.1-1.25,0.15-1.88
					c2.96-38.8,7.56-120.49,7.56-120.49L2648.28,861.97z"/>
				<path class="st14" d="M2648.28,861.97c0,0,2,23.91,4.34,52.65l43.76,66.42c0.05-0.63,0.1-1.25,0.15-1.88
					c2.96-38.8,7.56-120.49,7.56-120.49L2648.28,861.97z"/>
				<path class="st21" d="M2657.4,864.81c0,0,36,86.58,59.68,127.27s31.07,52.04,31.07,52.04s13.56-5.2,14.79-8.75
					c0,0-9.05-78.55-24.91-97.7c-8.96-10.82-19.48-43.29-19.97-54.65c-0.5-11.35-3.21-33.83-3.21-33.83L2657.4,864.81z"/>
			</g>
			<g>
				<path class="st13" d="M2546.35,817.85c0,0-9.76-2.14-11.41-2.04c-1.64,0.11-7.39,2.42-7.47,2.86c-0.08,0.45,0.2,0.81,1.19,0.88
					c1,0.06,4.26-0.34,4.06,0.04s-9.63,2.16-9.73,3.97c-0.11,1.82,5.06,5.2,9.42,5.43c4.36,0.23,12.93-4.63,13.67-4.7
					C2552.3,823.78,2546.35,817.85,2546.35,817.85z"/>
				<path class="st22" d="M2542.17,820.23c-1.4-4.28-1.07-4.96-1.07-4.96s39.59-20.53,43.21-22.62
					c3.63-2.08,44.54-43.85,44.54-43.85l41.9,11.06c0,0-64.85,47.38-74.14,52.49c-15.36,8.43-50.92,13.2-50.92,13.2
					S2543.27,823.59,2542.17,820.23z"/>
			</g>
			<path class="st13" d="M2641.54,728.5c0,0-14.69,24.79-29.05,28.03c0,0,0.6-8.33,4.1-14.03c-1.43-1.62-2.69-3.11-3.78-4.44
				c-3.62-4.44-5.33-7.16-5.33-7.16l4.87-12.57l3.31-8.53c1.59,2.77,3.34,5.13,5.17,7.14
				C2630.23,727.33,2641.54,728.5,2641.54,728.5z"/>
			<path class="st9" d="M2620.82,716.95c0,0,1.75,12.42-8.02,21.12c-3.62-4.44-5.33-7.16-5.33-7.16l4.87-12.57
				C2617.57,716.81,2620.82,716.95,2620.82,716.95z"/>
			<path class="st13" d="M2603.6,732.74c0,0,21.95-8.21,16.41-21.24s-6.44-22.87-20.68-18.18c-14.25,4.69-14.84,10.72-14.09,15.51
				C2585.98,713.6,2597.75,734.54,2603.6,732.74z"/>
			<path class="st22" d="M2716.99,855.74c-8.85,12.21-75.06,28.53-74.27,20.07c0.3-3.24,0.7-8.94-0.01-16.67
				c-0.17-1.81-0.4-3.73-0.7-5.76c-1.68-11.11-5.68-25.39-14.59-41.92c-0.67-1.24-1.36-2.49-2.09-3.75
				c-3.67-6.4-6.79-13.16-9.18-19.78c-4.59-12.71-6.44-24.88-4.12-32.83c0.01-0.04,0.02-0.07,0.04-0.11
				c13.84-6.14,19.2-29.94,19.2-29.94s47.21,8.13,73.66,68.5C2704.93,793.54,2724.69,845.11,2716.99,855.74z"/>
			<path class="st22" d="M2642.71,859.15c-0.17-1.81-0.4-3.73-0.7-5.76c-1.68-11.11-5.68-25.39-14.59-41.92
				c1.53-8.9,3.64-16.3,5.96-19.62c9.42-13.54,14.9-15.65,14.9-15.65S2662.4,833.31,2642.71,859.15z"/>
			<g>
				<path class="st13" d="M2568.29,845.55c0,0-13.06,0.66-15.08,1.36c-2.03,0.7-8.38,5.57-8.31,6.15c0.07,0.59,0.55,0.95,1.82,0.69
					c1.27-0.26,5.23-1.88,5.11-1.34c-0.12,0.55-11.28,6.01-10.74,8.32c0.55,2.32,8.28,4.79,13.85,3.59
					c5.56-1.21,14.51-10.25,15.41-10.58C2577.97,850.95,2568.29,845.55,2568.29,845.55z"/>
				<path class="st22" d="M2565.83,850.3c-2.62-4.06-0.73-5.91-0.73-5.91s40.34-30.3,43.51-33.37c3.16-3.06,17.81-51.81,17.81-51.81
					s5.04-19.73,16.85-21.9c10.26-1.89,17.35,2.98,21.99,8.69c5.53,6.8,6.07,16.18,1.48,23.6c-10.3,16.65-31.08,49.7-37.15,55.35
					c-13.51,12.57-58.69,30.13-58.69,30.13S2567.88,853.49,2565.83,850.3z"/>
			</g>
			<path class="st10" d="M2623.17,687.28c0.15-0.29,0.6-0.6,1.69-0.92c0,0-1.02-0.33-2.21-0.08c-0.62-1.44-2.11-3.9-4.93-3.92
				c0,0,1.61,0.4,2.21,1.95c-3.85-2.34-10.99-3.02-28.8,2.67c-23.48,7.5-11.75,20.58-8.19,21.62c3.56,1.05,10.11-5.68,16-6.6
				c5.89-0.92,9.08,6.95,11.32,7.61c2.25,0.65,0.97-1.14,3.32-2.93c2.35-1.79,3.7,2.43,3.65,5.39c-0.05,2.97,4.54,5.78,4.54,5.78
				s0,0,2.69-4.73c2.69-4.73,1.96-21.92-0.61-25.01C2623.62,687.84,2623.4,687.57,2623.17,687.28z"/>
		</g>
		<polygon class="st23" points="2252.03,1286.78 2252.03,1312.28 2189.13,1286.78 		"/>
		<rect x="2582.31" y="1069.37" class="st2" width="208.02" height="262.09"/>
		<rect x="2518.16" y="1069.37" class="st3" width="208.02" height="262.09"/>
		<polygon class="st23" points="2790.32,1069.37 2790.32,1108.56 2726.18,1069.37 		"/>
	</g>
</g>
<g class="st24">
	<g class="st25">
		<text transform="matrix(0.9634 0 0 1 204.2969 274.3584)"><tspan x="0" y="0" class="st26 st27 st28 st29">Helping Students </tspan><tspan x="0" y="180.78" class="st26 st27 st28 st29">Make Meaningful </tspan><tspan x="0" y="361.56" class="st26 st27 st28 st29">Connections</tspan></text>
	</g>
	<g>
		<text transform="matrix(0.9634 0 0 1 204.2969 274.3584)"><tspan x="0" y="0" class="st26 st27 st28 st29">Helping Students </tspan><tspan x="0" y="180.78" class="st26 st27 st28 st29">Make Meaningful </tspan><tspan x="0" y="361.56" class="st26 st27 st28 st29">Connections</tspan></text>
	</g>
</g>
<rect x="907.69" y="-2605.39" style="fill:none;" width="6.93" height="0"/>
<rect x="5767.37" y="-2667.78" style="fill:none;" width="6.93" height="0"/>
<rect x="6079.33" y="-2113.18" style="fill:none;" width="6.93" height="0"/>
<rect x="1302.84" y="-2536.07" style="fill:none;" width="6.93" height="0"/>
<text transform="matrix(1 0 0 1 2315.0161 1326.6193)" class="st30 st31 st32" font-family="Arial" font-size="12px" fill="white">pch.vector /Freepik</text>
</svg>
